# xmcd CD database file
#
# Track frame offsets:
# 150
# 13084
# 23225
# 34154
# 47761
# 58056
# 69790
# 102767
# 118108
# 133552
# 143411
# 157995
# 186648
# 200993
# 216962
# 234200
#
# Disc length: 3386 seconds
# Revision: 25
# Processed by: cddbd v1.5.2PL0 Copyright (c) Steve Scherf et al.
# Submitted via: MusicBin 0.4
#
DISCID=e20d3810
DTITLE=Beatles - Mono Masters [CD2]
DYEAR=2009
DGENRE=Rock
TTITLE0=Day Tripper (Mono)
TTITLE1=We Can Work It Out (Mono)
TTITLE2=Paperback Writer (Mono)
TTITLE3=Rain (Mono)
TTITLE4=Lady Madonna (Mono)
TTITLE5=The Inner Light (Mono)
TTITLE6=Hey Jude (Mono)
TTITLE7=Revolution (Mono)
TTITLE8=Only A Northern Song (Mono)
TTITLE9=All Together Now (Mono)
TTITLE10=Hey Bulldog (Mono)
TTITLE11=It's All Too Much (Mono)
TTITLE12=Get Back (Mono)
TTITLE13=Don't Let Me Down (Mono)
TTITLE14=Across The Universe (Mono)
TTITLE15=You Know My Name (Look Up The Number) (Mono)
EXTD=
EXTT0=YEAR: 1965
EXTT1=YEAR: 1965
EXTT2=YEAR: 1966
EXTT3=YEAR: 1966
EXTT4=YEAR: 1968
EXTT5=YEAR: 1968
EXTT6=YEAR: 1968
EXTT7=YEAR: 1968
EXTT8=YEAR: 1967
EXTT9=YEAR: 1967
EXTT10=YEAR: 1968
EXTT11=YEAR: 1968
EXTT12=YEAR: 1969
EXTT13=YEAR: 1969
EXTT14=YEAR: 1969
EXTT15=YEAR: 1969
PLAYORDER=
